<?xml version="1.0" encoding="utf-8"?>
<!-- Generator: Adobe Illustrator 16.0.3, SVG Export Plug-In . SVG Version: 6.00 Build 0)  -->
<!DOCTYPE svg PUBLIC "-//W3C//DTD SVG 1.1//EN" "http://www.w3.org/Graphics/SVG/1.1/DTD/svg11.dtd">
<svg version="1.1" id="Capa_1" xmlns="http://www.w3.org/2000/svg" xmlns:xlink="http://www.w3.org/1999/xlink" x="0px" y="0px"
	 width="261.152px" height="261.152px" viewBox="0 0 261.152 261.152" enable-background="new 0 0 261.152 261.152"
	 xml:space="preserve">
<path fill="#f0f9fd" d="M45.808,110.435l-5.294,37.816h9.643v-17.772l10.966,0.188l-10.305-19.476
	C50.818,111.191,50.914,99.279,45.808,110.435z"/>
<circle fill="#f0f9fd" cx="47.982" cy="102.777" r="8.225"/>
<path fill="#f0f9fd" d="M76.438,110.435l5.295,37.816H72.09v-17.772l-10.967,0.188l10.305-19.476
	C71.428,111.191,71.333,99.279,76.438,110.435z"/>
<circle fill="#f0f9fd" cx="74.264" cy="102.777" r="8.225"/>
<g>
	<path fill-rule="evenodd" clip-rule="evenodd" fill="#D53849" d="M148.09,146.026c-0.126,0.021-0.203,0.011-0.236,0.043
		c-3.717,3.741-11.803,2.796-15.101-3.131c-1.895-3.403-2.371-7.063-2.111-10.853c0.202-2.958,0.922-5.782,2.641-8.282
		c2.842-4.135,8.014-5.369,12.267-3.879c1.121,0.393,2.11,1.164,3.18,1.773c0.012-0.021,0.076-0.09,0.093-0.17
		c0.394-1.767,0.393-1.767,2.18-1.767c1.707,0,3.414,0.023,5.121-0.009c0.729-0.014,1.009,0.245,1.007,0.989
		c-0.016,8.774,0.047,17.548-0.032,26.322c-0.052,5.762-3.953,10.086-10.027,11.139c-2.042,0.354-4.189,0.536-6.236,0.313
		c-2.876-0.313-5.569-1.365-7.757-3.416c-0.482-0.452-0.553-0.816-0.129-1.37c0.909-1.188,1.779-2.409,2.61-3.653
		c0.442-0.662,0.747-0.737,1.365-0.146c2.01,1.919,4.473,2.504,7.149,2.018C147.028,151.41,148.559,149.091,148.09,146.026z
		 M148.187,133.795c0-1.648-0.037-3.296,0.015-4.942c0.026-0.826-0.333-1.358-0.957-1.799c-2.294-1.622-5.407-1.015-6.625,1.507
		c-1.599,3.31-1.652,6.802-0.249,10.189c1.337,3.229,4.704,3.021,6.679,1.944c0.769-0.419,1.181-1.02,1.151-1.958
		C148.148,137.091,148.187,135.442,148.187,133.795z"/>
	<path fill-rule="evenodd" clip-rule="evenodd" fill="#D53849" d="M192.881,136.639c-2.456,0-4.912-0.003-7.368,0.002
		c-1.085,0.002-1.237,0.204-0.811,1.213c0.866,2.053,2.42,3.264,4.642,3.464c2.578,0.233,4.963-0.26,6.82-2.252
		c0.425-0.457,0.725-0.368,1.087,0.067c0.993,1.198,1.994,2.391,3.023,3.56c0.429,0.487,0.371,0.85-0.043,1.313
		c-2.097,2.346-4.798,3.627-7.825,4.042c-3.542,0.485-7.081,0.296-10.303-1.542c-3.906-2.228-6.151-5.579-6.641-10.077
		c-0.324-2.983-0.161-5.918,0.864-8.766c1.786-4.964,5.398-7.625,10.561-8.221c3.063-0.354,6.057-0.031,8.761,1.599
		c3.276,1.975,5.02,5.004,5.536,8.711c0.271,1.947,0.222,3.938,0.339,5.908c0.044,0.747-0.275,0.997-1.003,0.989
		C197.974,136.621,195.427,136.638,192.881,136.639z M188.744,130.943c0,0.008,0,0.016,0,0.023c1.138,0,2.276,0.025,3.413-0.021
		c0.244-0.01,0.647-0.24,0.688-0.43c0.333-1.549-0.845-3.494-2.373-4.023c-2.878-0.997-5.483,0.607-5.964,3.649
		c-0.101,0.636,0.182,0.806,0.732,0.803C186.408,130.938,187.576,130.943,188.744,130.943z"/>
	<path fill-rule="evenodd" clip-rule="evenodd" fill="#D53849" d="M110.429,122.642c0.934-0.72,1.712-1.482,2.629-1.996
		c3.013-1.684,6.196-1.785,9.347-0.501c2.125,0.865,3.427,2.657,3.946,4.842c0.426,1.79,0.684,3.657,0.716,5.496
		c0.092,5.33,0.035,10.664,0.032,15.996c0,1.16-0.034,1.188-1.233,1.189c-2.157,0.003-4.314,0.003-6.471,0
		c-1.159-0.001-1.222-0.059-1.223-1.213c-0.005-5.212-0.002-10.424-0.002-15.637c0-0.24,0.01-0.479-0.002-0.719
		c-0.064-1.366-0.097-2.818-1.585-3.452c-1.685-0.717-3.391-0.676-4.949,0.452c-0.649,0.471-0.932,1.086-0.928,1.923
		c0.027,5.721,0.015,11.443,0.014,17.165c0,1.48-0.003,1.481-1.496,1.481c-2.067,0-4.135-0.023-6.201,0.012
		c-0.786,0.014-1.121-0.202-1.118-1.061c0.025-8.597,0.023-17.194,0.001-25.792c-0.002-0.824,0.269-1.101,1.09-1.083
		c2.066,0.045,4.134,0.036,6.2,0.004c0.728-0.011,1.037,0.267,1.055,0.986C110.269,121.352,110.363,121.965,110.429,122.642z"/>
	<path fill-rule="evenodd" clip-rule="evenodd" fill="#D53849" d="M223.375,128.553c-1.138-0.001-2.276-0.016-3.415,0.005
		c-0.596,0.011-0.953-0.163-1.043-0.821c-0.171-1.248-0.849-2.088-2.119-2.372c-1.463-0.326-2.814-0.183-3.854,1.035
		c-0.768,0.898-0.675,2.346,0.371,2.897c1.195,0.63,2.539,0.991,3.836,1.412c2.099,0.682,4.34,1.06,6.296,2.022
		c5.538,2.727,5.881,9.796,0.761,13.264c-1.616,1.094-3.412,1.778-5.334,2.016c-3.678,0.456-7.321,0.411-10.654-1.52
		c-2.66-1.541-4.526-3.69-4.953-6.876c-0.101-0.754,0.179-0.959,0.867-0.953c2.126,0.019,4.254-0.016,6.38,0.032
		c0.324,0.007,0.837,0.279,0.929,0.545c0.869,2.494,2.639,3.556,5.34,3.073c0.49-0.088,1.007-0.244,1.419-0.512
		c1.508-0.983,1.479-2.886-0.162-3.595c-1.579-0.683-3.314-0.997-4.952-1.556c-1.637-0.559-3.32-1.064-4.84-1.865
		c-5.681-2.993-5.369-10.137-0.394-13.401c1.613-1.059,3.383-1.672,5.282-1.883c3.702-0.412,7.312-0.161,10.589,1.838
		c2.205,1.344,3.654,3.254,4.019,5.874c0.161,1.156,0.002,1.331-1.134,1.337C225.533,128.559,224.454,128.554,223.375,128.553z"/>
	<path fill-rule="evenodd" clip-rule="evenodd" fill="#D53849" d="M171.025,127.901c0,6.17,0.001,12.34,0,18.51
		c0,1.252-0.005,1.256-1.241,1.257c-2.156,0.002-4.313-0.024-6.469,0.014c-0.792,0.014-1.124-0.206-1.123-1.061
		c0.021-12.489,0.019-24.979,0.003-37.469c-0.001-0.777,0.273-1.06,1.05-1.048c2.246,0.032,4.493,0.042,6.738-0.004
		c0.852-0.018,1.059,0.315,1.056,1.112C171.014,115.441,171.025,121.671,171.025,127.901z"/>
	<path fill-rule="evenodd" clip-rule="evenodd" fill="#D53849" d="M96.931,133.778c0,4.253-0.018,8.507,0.015,12.76
		c0.007,0.848-0.249,1.166-1.123,1.147c-2.245-0.047-4.493-0.042-6.739-0.001c-0.8,0.014-1.025-0.288-1.024-1.054
		c0.02-8.626,0.021-17.252-0.002-25.879c-0.002-0.824,0.325-1.013,1.069-1.002c2.246,0.033,4.494,0.042,6.739-0.003
		c0.835-0.017,1.084,0.284,1.079,1.093C96.916,125.151,96.931,129.465,96.931,133.778z"/>
</g>
<rect x="88.058" y="106.023" fill-rule="evenodd" clip-rule="evenodd" fill="#D53849" width="8.888" height="9.188"/>
</svg>
